<svg xmlns="http://www.w3.org/2000/svg" id="Capa_2" data-name="Capa 2" viewBox="0 0 221.48 198.1">
  <defs>
    <style>
      .cls-1,
      .cls-2 {
        fill: #5c7ee5;
        stroke: #00f;
        stroke-miterlimit: 10;
        stroke-width: 2px
      }

      .cls-2 {
        fill: #662d91;
        stroke: #1b1464
      }
    </style>
  </defs>
  <path
    d="M21.17 1h88.89v10H92.17l17.89 70H57.17l-24-70h-12V1zM147.56 1.33h66v10h-14l-23.12 70h-28.88l17-70h-17v-10zM75.39 134h49.78l6 25 6.89-25h18.22l-20.11 58-39 5-21.78-63z"
    class="cls-2" />
  <g style="opacity:.87">
    <path d="M67.83 12v70H21.17V12h-15V2h94v10H67.83M21.17 137h46v53l75-36.78V137h10v60h-146v-7h16l-1-53z"
      class="cls-1" />
  </g><text
    style="fill:#1b1464;font-family:CascadiaMono-Roman,&quot;Cascadia Mono&quot;;font-size:42px;font-variation-settings:&quot;wght&quot;400"
    transform="translate(0 121.44)">
    <tspan x="0" y="0">Developer</tspan>
  </text>
</svg>